<?xml version="1.0" encoding="UTF-8"?>
<svg version="1.1" xmlns="http://www.w3.org/2000/svg" width="300" height="71">
<path d="M0 0 C99 0 198 0 300 0 C300 23.43 300 46.86 300 71 C201 71 102 71 0 71 C0 47.57 0 24.14 0 0 Z " fill="#AA202E" transform="translate(0,0)"/>
<path d="M0 0 C1.19786133 -0.03577148 1.19786133 -0.03577148 2.41992188 -0.07226562 C6.76487608 -0.06146624 8.55857944 0.1743712 12.10546875 2.90625 C14.48114771 6.13072444 14.5631306 7.64089366 14.0625 11.5625 C13.876875 12.2225 13.69125 12.8825 13.5 13.5625 C12.88318771 16.38221331 13.49028369 18.76499803 14.0625 21.5625 C13.0725 21.5625 12.0825 21.5625 11.0625 21.5625 C10.4025 20.2425 9.7425 18.9225 9.0625 17.5625 C2.7925 17.2325 -3.4775 16.9025 -9.9375 16.5625 C-9.9375 18.2125 -9.9375 19.8625 -9.9375 21.5625 C-10.9275 21.5625 -11.9175 21.5625 -12.9375 21.5625 C-13.04562003 18.81144578 -13.12484945 16.06464913 -13.1875 13.3125 C-13.22101563 12.53519531 -13.25453125 11.75789063 -13.2890625 10.95703125 C-13.35003486 7.39014804 -13.29536808 5.17941467 -11.48046875 2.05078125 C-7.69331598 -0.165663 -4.3143706 -0.05891108 0 0 Z " fill="#F9F1F2" transform="translate(102.9375,24.4375)"/>
<path d="M0 0 C0.80244141 -0.01095703 1.60488281 -0.02191406 2.43164062 -0.03320312 C6.25735463 0.01441987 8.30016482 0.08973494 11.43359375 2.4140625 C13.42016296 5.25201852 13.9375 7.09273441 13.9375 10.5625 C12.16710551 13.30966387 10.87458156 15.09395922 7.9375 16.5625 C6.56201844 16.64558638 5.18264204 16.66986016 3.8046875 16.66015625 C2.99902344 16.65693359 2.19335938 16.65371094 1.36328125 16.65039062 C0.52152344 16.64201172 -0.32023437 16.63363281 -1.1875 16.625 C-2.03699219 16.62048828 -2.88648438 16.61597656 -3.76171875 16.61132812 C-5.86200909 16.59952874 -7.9622633 16.58159306 -10.0625 16.5625 C-10.0625 18.2125 -10.0625 19.8625 -10.0625 21.5625 C-11.3825 21.5625 -12.7025 21.5625 -14.0625 21.5625 C-14.19809675 18.99821485 -14.29683188 16.44114784 -14.375 13.875 C-14.41689453 13.15376953 -14.45878906 12.43253906 -14.50195312 11.68945312 C-14.59179817 7.75424036 -14.32170488 5.95856506 -12.109375 2.578125 C-7.96924603 -0.16072955 -4.85690737 -0.14504082 0 0 Z " fill="#F8EDEE" transform="translate(45.0625,24.4375)"/>
<path d="M0 0 C1.53720703 0.01933594 1.53720703 0.01933594 3.10546875 0.0390625 C4.70068359 0.08933594 4.70068359 0.08933594 6.328125 0.140625 C7.94654297 0.16769531 7.94654297 0.16769531 9.59765625 0.1953125 C12.25871288 0.24241085 14.91796754 0.308169 17.578125 0.390625 C17.578125 1.380625 17.578125 2.370625 17.578125 3.390625 C16.64746216 3.39678833 16.64746216 3.39678833 15.69799805 3.40307617 C12.88623836 3.4359761 10.07665645 3.50661148 7.265625 3.578125 C6.28916016 3.58392578 5.31269531 3.58972656 4.30664062 3.59570312 C2.89995117 3.63920898 2.89995117 3.63920898 1.46484375 3.68359375 C0.60076904 3.6993042 -0.26330566 3.71501465 -1.15356445 3.73120117 C-4.15250805 4.32431696 -4.15250805 4.32431696 -6.421875 9.390625 C1.498125 9.390625 9.418125 9.390625 17.578125 9.390625 C17.578125 16.390625 17.578125 16.390625 15.78515625 19.30859375 C11.02495581 22.3989553 6.8078661 21.93360847 1.265625 21.703125 C0.23888672 21.68056641 -0.78785156 21.65800781 -1.84570312 21.63476562 C-4.3725929 21.57600075 -6.89647755 21.49390349 -9.421875 21.390625 C-9.421875 20.070625 -9.421875 18.750625 -9.421875 17.390625 C-2.161875 17.060625 5.098125 16.730625 12.578125 16.390625 C12.908125 15.070625 13.238125 13.750625 13.578125 12.390625 C5.988125 12.390625 -1.601875 12.390625 -9.421875 12.390625 C-9.421875 4.390625 -9.421875 4.390625 -7.76074219 1.91503906 C-4.92289335 0.06540147 -3.36750205 -0.07483338 0 0 Z " fill="#FCF8F8" transform="translate(156.421875,24.609375)"/>
<path d="M0 0 C1.53720703 0.01933594 1.53720703 0.01933594 3.10546875 0.0390625 C4.70068359 0.08933594 4.70068359 0.08933594 6.328125 0.140625 C7.94654297 0.16769531 7.94654297 0.16769531 9.59765625 0.1953125 C12.25871288 0.24241085 14.91796754 0.308169 17.578125 0.390625 C17.578125 1.380625 17.578125 2.370625 17.578125 3.390625 C16.64746216 3.39678833 16.64746216 3.39678833 15.69799805 3.40307617 C12.88623836 3.4359761 10.07665645 3.50661148 7.265625 3.578125 C6.28916016 3.58392578 5.31269531 3.58972656 4.30664062 3.59570312 C2.89995117 3.63920898 2.89995117 3.63920898 1.46484375 3.68359375 C0.60076904 3.6993042 -0.26330566 3.71501465 -1.15356445 3.73120117 C-4.15250805 4.32431696 -4.15250805 4.32431696 -6.421875 9.390625 C1.498125 9.390625 9.418125 9.390625 17.578125 9.390625 C17.578125 10.380625 17.578125 11.370625 17.578125 12.390625 C9.658125 12.390625 1.738125 12.390625 -6.421875 12.390625 C-5.761875 13.710625 -5.101875 15.030625 -4.421875 16.390625 C2.838125 16.720625 10.098125 17.050625 17.578125 17.390625 C17.578125 18.710625 17.578125 20.030625 17.578125 21.390625 C14.0159019 21.50716936 10.45417158 21.5779889 6.890625 21.640625 C5.88322266 21.67414062 4.87582031 21.70765625 3.83789062 21.7421875 C-0.5794854 21.80050269 -3.60874699 21.80319734 -7.59375 19.78125 C-9.97927254 16.66172052 -10.06041067 14.79080769 -9.984375 10.890625 C-9.98566406 9.7665625 -9.98695312 8.6425 -9.98828125 7.484375 C-8.91938312 1.64597972 -5.67908044 -0.12620179 0 0 Z " fill="#FCF9F9" transform="translate(70.421875,24.609375)"/>
<path d="M0 0 C3.75076665 -0.10784952 7.49843949 -0.18724988 11.25 -0.25 C12.31347656 -0.28351562 13.37695312 -0.31703125 14.47265625 -0.3515625 C15.49746094 -0.36445313 16.52226562 -0.37734375 17.578125 -0.390625 C18.99206543 -0.4220459 18.99206543 -0.4220459 20.43457031 -0.45410156 C23.8036715 0.14225628 24.95888016 1.29663966 27 4 C27.45410156 6.01464844 27.45410156 6.01464844 27.390625 8.109375 C27.37128906 9.24052734 27.37128906 9.24052734 27.3515625 10.39453125 C27.31804687 11.17183594 27.28453125 11.94914062 27.25 12.75 C27.23195312 13.54277344 27.21390625 14.33554687 27.1953125 15.15234375 C27.14833082 17.10208348 27.07659044 19.05119878 27 21 C26.01 21 25.02 21 24 21 C23.93941406 19.92878906 23.87882812 18.85757813 23.81640625 17.75390625 C23.73201463 16.35675609 23.64736594 14.95962143 23.5625 13.5625 C23.52318359 12.85544922 23.48386719 12.14839844 23.44335938 11.41992188 C23.52375562 7.91309581 23.52375562 7.91309581 22 5 C19.69 4.67 17.38 4.34 15 4 C15 9.61 15 15.22 15 21 C13.68 21 12.36 21 11 21 C11 15.39 11 9.78 11 4 C8.69 4 6.38 4 4 4 C4 9.28 4 14.56 4 20 C2.68 20.33 1.36 20.66 0 21 C0 14.07 0 7.14 0 0 Z " fill="#F8EDEE" transform="translate(176,25)"/>
<path d="M0 0 C1.32 0 2.64 0 4 0 C4.12375 1.134375 4.2475 2.26875 4.375 3.4375 C4.684375 5.2009375 4.684375 5.2009375 5 7 C8.04213267 8.52106634 11.28047572 8.37429338 14.625 8.5625 C15.33140625 8.60568359 16.0378125 8.64886719 16.765625 8.69335938 C18.51018537 8.79944751 20.25506697 8.90022889 22 9 C22 6.03 22 3.06 22 0 C23.32 0 24.64 0 26 0 C26.05411124 2.41696872 26.09372278 4.83271787 26.125 7.25 C26.15013672 8.27287109 26.15013672 8.27287109 26.17578125 9.31640625 C26.24105992 16.04010954 26.24105992 16.04010954 24 19 C21.1204937 20.73735141 19.01574863 21.24308212 15.671875 21.1953125 C14.87265625 21.18886719 14.0734375 21.18242188 13.25 21.17578125 C12.425 21.15902344 11.6 21.14226563 10.75 21.125 C9.90953125 21.11597656 9.0690625 21.10695313 8.203125 21.09765625 C6.13529396 21.07415817 4.06761005 21.03828908 2 21 C2 19.68 2 18.36 2 17 C7.94 16.67 13.88 16.34 20 16 C20.66 14.68 21.32 13.36 22 12 C20.83082031 12.05800781 19.66164062 12.11601563 18.45703125 12.17578125 C16.9088942 12.22269449 15.36071383 12.26819298 13.8125 12.3125 C12.65911133 12.3753418 12.65911133 12.3753418 11.48242188 12.43945312 C7.19985969 12.5313536 5.50722769 12.38172806 1.96875 9.71875 C-0.52105859 6.28044291 -0.40706205 4.1520329 0 0 Z " fill="#FAF4F5" transform="translate(119,25)"/>
<path d="M0 0 C1.32 0 2.64 0 4 0 C4 2.97 4 5.94 4 9 C10.6 9 17.2 9 24 9 C24 6.03 24 3.06 24 0 C25.32 0 26.64 0 28 0 C28 6.93 28 13.86 28 21 C26.68 21 25.36 21 24 21 C24 18.03 24 15.06 24 12 C17.4 12 10.8 12 4 12 C4 14.97 4 17.94 4 21 C2.68 21 1.36 21 0 21 C0 14.07 0 7.14 0 0 Z " fill="#FAF3F3" transform="translate(241,25)"/>
<path d="M0 0 C8.91 0 17.82 0 27 0 C27 1.32 27 2.64 27 4 C23.37 4 19.74 4 16 4 C16 9.61 16 15.22 16 21 C14.68 21 13.36 21 12 21 C12 15.06 12 9.12 12 3 C8.04 3 4.08 3 0 3 C0 2.01 0 1.02 0 0 Z " fill="#F8EEEF" transform="translate(212,25)"/>
<path d="M0 0 C1.56125851 0.00399299 3.12251789 0.01875614 4.68359375 0.04296875 C5.47701172 0.04361328 6.27042969 0.04425781 7.08789062 0.04492188 C12.98083853 0.09021353 12.98083853 0.09021353 14.12109375 1.23046875 C14.16190158 3.23005239 14.16363731 5.23092129 14.12109375 7.23046875 C11.82455675 8.37873725 10.53796208 8.3460805 7.98828125 8.328125 C7.18261719 8.32490234 6.37695312 8.32167969 5.546875 8.31835938 C4.70511719 8.30998047 3.86335938 8.30160156 2.99609375 8.29296875 C2.14660156 8.28845703 1.29710938 8.28394531 0.421875 8.27929688 C-1.67841534 8.26749749 -3.77866955 8.24956181 -5.87890625 8.23046875 C-6.00390625 5.35546875 -6.00390625 5.35546875 -5.87890625 2.23046875 C-3.87890625 0.23046875 -3.87890625 0.23046875 0 0 Z " fill="#AB2231" transform="translate(98.87890625,28.76953125)"/>
<path d="M0 0 C0.74886475 0.00523682 1.49772949 0.01047363 2.26928711 0.01586914 C3.07817383 0.0190918 3.88706055 0.02231445 4.72045898 0.02563477 C5.5705957 0.03401367 6.42073242 0.04239258 7.29663086 0.05102539 C8.15063477 0.05553711 9.00463867 0.06004883 9.88452148 0.06469727 C12.00108749 0.07652166 14.11761771 0.0944577 16.23413086 0.11352539 C16.85913086 2.98852539 16.85913086 2.98852539 17.23413086 6.11352539 C15.23413086 8.11352539 15.23413086 8.11352539 13.35473633 8.34057617 C12.6111084 8.33010254 11.86748047 8.31962891 11.10131836 8.30883789 C9.89282227 8.29916992 9.89282227 8.29916992 8.65991211 8.28930664 C7.8181543 8.27254883 6.97639648 8.25579102 6.10913086 8.23852539 C4.83489258 8.22499023 4.83489258 8.22499023 3.53491211 8.21118164 C1.43453202 8.18758186 -0.66570358 8.15171022 -2.76586914 8.11352539 C-2.80828637 5.78057764 -2.80679851 3.44649972 -2.76586914 1.11352539 C-1.76586914 0.11352539 -1.76586914 0.11352539 0 0 Z " fill="#AB2130" transform="translate(37.765869140625,28.886474609375)"/>
<path d="M0 0 C0.91120605 0.01047363 1.82241211 0.02094727 2.76123047 0.03173828 C3.74736328 0.03818359 4.73349609 0.04462891 5.74951172 0.05126953 C7.29832031 0.07640625 7.29832031 0.07640625 8.87841797 0.10205078 C9.91869141 0.11107422 10.95896484 0.12009766 12.03076172 0.12939453 C14.60520889 0.15301331 17.17920009 0.18594929 19.75341797 0.22705078 C19.75341797 2.20705078 19.75341797 4.18705078 19.75341797 6.22705078 C11.50341797 6.22705078 3.25341797 6.22705078 -5.24658203 6.22705078 C-3.7854638 0.38257785 -3.7854638 0.38257785 0 0 Z " fill="#B43B48" transform="translate(155.24658203125,27.77294921875)"/>
<path d="M0 0 C1.32 0 2.64 0 4 0 C4 6.6 4 13.2 4 20 C2.68 20.33 1.36 20.66 0 21 C0 14.07 0 7.14 0 0 Z " fill="#F5E6E8" transform="translate(206,25)"/>
<path d="M0 0 C3 0.125 3 0.125 4 1.125 C3.71269945 3.46444736 3.38063221 5.7989143 3 8.125 C1.02 8.125 -0.96 8.125 -3 8.125 C-3.38063221 5.7989143 -3.71269945 3.46444736 -4 1.125 C-3 0.125 -3 0.125 0 0 Z " fill="#D7979E" transform="translate(275,24.875)"/>
</svg>
